<svg xmlns="http://www.w3.org/2000/svg" width="14.002" height="30.001" viewBox="0 0 14.002 30.001">
  <g id="_020201ff" data-name="#020201ff" transform="translate(-1831.701 -686.666)">
    <path id="Path_8" data-name="Path 8" d="M1836.315,688.212a6.579,6.579,0,0,1,4.4-1.537c1.661-.015,3.32-.006,4.98-.005q.01,2.627,0,5.254c-1.073,0-2.147,0-3.22,0a1.482,1.482,0,0,0-1.5,1.147c-.017,1.172-.006,2.345-.006,3.516,1.574.007,3.148,0,4.721,0-.115,1.7-.326,3.383-.572,5.064-1.39.013-2.781,0-4.171.007-.012,5,.007,10-.009,15-2.065.008-4.131,0-6.195.006-.039-5,0-10-.021-15.005-1.008-.011-2.015.007-3.022-.009q0-2.522,0-5.042c1.007-.012,2.014,0,3.021-.007.03-1.634-.031-3.27.031-4.9A5.285,5.285,0,0,1,1836.315,688.212Z" fill="#3d58a6"/>
  </g>
</svg>
