<svg xmlns="http://www.w3.org/2000/svg" width="24.812" height="30" viewBox="0 0 24.812 30">
  <path id="Path_9" data-name="Path 9" d="M1927.305,711.028v-3.542q0-1.128-.654-1.128a1.062,1.062,0,0,0-.745.361v5.053a1.058,1.058,0,0,0,.745.361q.654,0,.654-1.1Zm4.15-2.752h1.489v-.767q0-1.15-.744-1.151t-.745,1.151Zm-12.879-6v1.579h-1.805V713.4H1915.1v-9.541h-1.759v-1.579Zm4.533,2.842V713.4H1921.6v-.9a2.4,2.4,0,0,1-1.714,1.015.887.887,0,0,1-.947-.632,3.807,3.807,0,0,1-.136-1.218v-6.541h1.489v6.09a3.444,3.444,0,0,0,.022.586c.016.226.128.339.339.339q.452,0,.947-.7v-6.316Zm5.685,2.5v3.293a5.882,5.882,0,0,1-.158,1.646,1.157,1.157,0,0,1-1.2.948,2.046,2.046,0,0,1-1.534-.925v.812H1924.4v-11.12h1.511v3.631a2.009,2.009,0,0,1,1.534-.9,1.157,1.157,0,0,1,1.2.947A6.016,6.016,0,0,1,1928.794,707.622Zm5.661,2.909v.2a7.567,7.567,0,0,1-.045.97,2.131,2.131,0,0,1-.338.9,2.037,2.037,0,0,1-1.805.9,2.168,2.168,0,0,1-1.827-.857,3.178,3.178,0,0,1-.473-1.94V707.8a3.292,3.292,0,0,1,.451-1.94,2.144,2.144,0,0,1,1.8-.857,2.027,2.027,0,0,1,1.76.857,3.24,3.24,0,0,1,.473,1.94v1.714h-3v1.466q0,1.151.767,1.151a.654.654,0,0,0,.677-.587c0-.015,0-.067.011-.158s.012-.214.012-.372v-.485Zm-10.173-18.586v3.519q0,1.151-.721,1.15t-.722-1.15v-3.519q0-1.173.722-1.173T1924.282,691.945Zm12.023,16.083a28.823,28.823,0,0,0-.429-5.865,3.08,3.08,0,0,0-.97-1.658,3.039,3.039,0,0,0-1.714-.778,127.246,127.246,0,0,0-18.564,0,3.006,3.006,0,0,0-1.725.778,3.113,3.113,0,0,0-.959,1.658,28.207,28.207,0,0,0-.451,5.865,27.619,27.619,0,0,0,.451,5.864,3.165,3.165,0,0,0,.959,1.647,2.955,2.955,0,0,0,1.7.789q3.09.339,9.293.339t9.293-.339a2.958,2.958,0,0,0,1.7-.789,3.172,3.172,0,0,0,.959-1.647A27.617,27.617,0,0,0,1936.305,708.028Zm-17.03-14.685,2.03-6.676h-1.692l-1.15,4.4-1.2-4.4h-1.759l.541,1.556.519,1.556a31.16,31.16,0,0,1,1.038,3.564v4.534h1.669v-4.534Zm6.519,1.827v-2.932a3.339,3.339,0,0,0-.474-1.962,2.1,2.1,0,0,0-1.759-.857,2.025,2.025,0,0,0-1.76.857,3.339,3.339,0,0,0-.473,1.962v2.932a3.341,3.341,0,0,0,.473,1.963,2.027,2.027,0,0,0,1.76.857,2.1,2.1,0,0,0,1.759-.857A3.216,3.216,0,0,0,1925.794,695.17Zm4.082,2.707h1.512v-8.346h-1.512v6.384q-.495.7-.947.7-.339,0-.361-.361a3.443,3.443,0,0,1-.022-.586v-6.136h-1.512v6.609a4.178,4.178,0,0,0,.136,1.241.948.948,0,0,0,.97.609,2.516,2.516,0,0,0,1.736-1.015v.9Z" transform="translate(-1911.493 -686.667)" fill="#3d58a6"/>
</svg>
